<svg width="16" height="16" xmlns="http://www.w3.org/2000/svg" version="1.0" preserveAspectRatio="xMidYMid meet">
  <metadata>Created by potrace 1.16, written by Peter Selinger 2001-2019</metadata>
  <path fill="#ccc" d="m7.39899,1.95268c-0.03628,0.01066 -0.08411,0.02353 -0.10628,0.02858l-0.04031,0.00916l0,0.79865l0,0.79861l-2.63097,0l-2.63101,0l-0.00912,0.04031c-0.00502,0.02217 -0.01836,0.07285 -0.02961,0.11262c-0.02983,0.10543 -0.02957,1.1033 0.00033,1.19675c0.0114,0.03569 0.02474,0.08304 0.02957,0.10521l0.00883,0.04035l6.01204,-0.0037l6.012,-0.00366l0.02664,-0.09528c0.04038,-0.14443 0.0402,-1.12961 -0.00022,-1.28265l-0.02708,-0.10261l-2.6331,-0.0037l-2.6331,-0.0037l0,-0.79858l0,-0.79861l-0.04031,-0.00883c-0.02217,-0.00484 -0.06952,-0.01818 -0.10521,-0.02957c-0.09045,-0.02895 -1.10429,-0.0284 -1.20309,0.00066m-5.41769,9.00475c-0.00502,0.02217 -0.01836,0.07285 -0.02961,0.11262c-0.02983,0.10543 -0.02957,1.1033 0.00033,1.19675c0.0114,0.03569 0.02474,0.08304 0.02957,0.10521l0.00883,0.04031l2.63086,0l2.63086,0l0.00381,0.80074l0.00377,0.80074l0.10261,0.02708c0.15304,0.04042 1.13822,0.0406 1.28265,0.00022l0.09528,-0.02664l0.00377,-0.80103l0.00381,-0.80103l2.63332,-0.0037l2.63328,-0.0037l0.02664,-0.09528c0.04038,-0.14443 0.0402,-1.12961 -0.00022,-1.28265l-0.02708,-0.10261l-6.01167,-0.00366l-6.01171,-0.0037l-0.00912,0.04035" fill-rule="evenodd"/>
  <path fill="#ccc" d="m2.32702,2.02146c0,0.03067 0.00088,0.03082 0.02932,0.00506c0.01613,-0.01459 0.02932,-0.0288 0.02932,-0.03159c0,-0.00279 -0.01319,-0.00506 -0.02932,-0.00506c-0.02027,0 -0.02932,0.00978 -0.02932,0.03159m-0.33715,0.33715c0,0.03067 0.00088,0.03082 0.02932,0.00506c0.01613,-0.01459 0.02932,-0.0288 0.02932,-0.03159c0,-0.00279 -0.01319,-0.00506 -0.02932,-0.00506c-0.02027,0 -0.02932,0.00978 -0.02932,0.03159m2.86848,3.3055c-0.0055,0.0055 -0.01,0.03108 -0.01,0.05684c0,0.04603 -0.00136,0.04695 -0.08165,0.05523c-0.09015,0.00931 -0.11657,0.02448 -0.12903,0.07406c-0.00473,0.01884 -0.02899,0.0424 -0.056,0.05438c-0.02745,0.01217 -0.05098,0.03518 -0.05541,0.05424c-0.00436,0.01858 -0.03001,0.04427 -0.0586,0.05864c-0.0313,0.01569 -0.05413,0.03965 -0.05926,0.06219c-0.00513,0.02254 -0.02023,0.03837 -0.03921,0.04112c-0.03654,0.00531 -0.07274,0.04277 -0.08011,0.08282c-0.00297,0.01624 -0.02111,0.03232 -0.04181,0.03709c-0.02243,0.00513 -0.04647,0.02811 -0.06212,0.0593c-0.01437,0.02858 -0.04006,0.05424 -0.05864,0.0586c-0.01854,0.00432 -0.04196,0.02767 -0.05325,0.05314c-0.01129,0.02532 -0.04024,0.05427 -0.06556,0.06556c-0.02547,0.01129 -0.04881,0.0347 -0.05314,0.05325c-0.00436,0.01858 -0.03001,0.04427 -0.0586,0.05864c-0.02858,0.01433 -0.05431,0.04006 -0.05864,0.05864c-0.00436,0.01858 -0.03005,0.04427 -0.05864,0.05864c-0.03089,0.0155 -0.05416,0.03973 -0.05919,0.06164c-0.00524,0.02279 -0.02162,0.03918 -0.04442,0.04442c-0.02192,0.00502 -0.04614,0.02829 -0.06164,0.05919c-0.01444,0.02869 -0.03998,0.0542 -0.05864,0.05849c-0.01851,0.00429 -0.0428,0.02833 -0.05508,0.05449c-0.01257,0.02679 -0.03951,0.0531 -0.06285,0.06142c-0.02415,0.00861 -0.04687,0.03133 -0.05548,0.05548c-0.00832,0.02334 -0.03463,0.05028 -0.06142,0.06285c-0.02617,0.01228 -0.05021,0.03657 -0.05449,0.05508c-0.00429,0.01865 -0.02979,0.0442 -0.05849,0.05864c-0.03119,0.01565 -0.05416,0.03969 -0.0593,0.06212c-0.00473,0.02063 -0.02089,0.03888 -0.03709,0.04189c-0.04493,0.00832 -0.06384,0.03023 -0.08238,0.0955c-0.01832,0.0645 -0.06435,0.12654 -0.09385,0.12654c-0.03166,0 -0.03496,0.03855 -0.03408,0.39806c0.00088,0.36339 0.00352,0.39352 0.03408,0.39352c0.0295,0 0.07553,0.06204 0.09385,0.12654c0.01854,0.06527 0.03745,0.08718 0.08238,0.0955c0.0162,0.003 0.03236,0.02126 0.03709,0.04189c0.00513,0.02243 0.02811,0.04647 0.0593,0.06212c0.02869,0.01444 0.0542,0.03998 0.05849,0.05864c0.00429,0.01851 0.02833,0.0428 0.05449,0.05508c0.02679,0.01257 0.0531,0.03951 0.06142,0.06285c0.00861,0.02415 0.03133,0.04687 0.05548,0.05548c0.02353,0.00836 0.05021,0.03456 0.06285,0.06171c0.01645,0.03529 0.03141,0.04709 0.05944,0.0468c0.02617,-0.00022 0.03804,0.00788 0.03951,0.02701c0.0033,0.04383 0.04416,0.09543 0.07967,0.10056c0.02089,0.003 0.03577,0.01796 0.04108,0.04137c0.00513,0.02254 0.02796,0.04651 0.05926,0.06219c0.02858,0.01437 0.05427,0.04006 0.05864,0.05864c0.00432,0.01858 0.03005,0.04431 0.05864,0.05864c0.02858,0.01437 0.05424,0.04006 0.0586,0.05864c0.00432,0.01854 0.02767,0.04196 0.05314,0.05325c0.02532,0.01129 0.05427,0.04024 0.06556,0.06556c0.01129,0.02547 0.0347,0.04881 0.05325,0.05314c0.01858,0.00436 0.04427,0.03001 0.05864,0.0586c0.01569,0.0313 0.03965,0.05413 0.06219,0.05926c0.02254,0.00513 0.03837,0.02023 0.04112,0.03921c0.00531,0.03654 0.04277,0.07274 0.08282,0.08011c0.01624,0.00297 0.03232,0.02111 0.03709,0.04181c0.00513,0.02243 0.02811,0.04647 0.0593,0.06212c0.02858,0.01437 0.05424,0.04006 0.0586,0.05864c0.00432,0.01854 0.02767,0.04196 0.05314,0.05325c0.02529,0.01125 0.05431,0.04024 0.06556,0.06556c0.01547,0.03478 0.03419,0.04885 0.08059,0.06043c0.06996,0.01748 0.10595,0.04409 0.12405,0.09169l0.01286,0.03383l0.39242,-0.00388l0.39238,-0.00392l0.00454,-0.05497c0.00443,-0.05343 0.00616,-0.05497 0.0623,-0.05497c0.04636,0 0.05776,-0.00535 0.05776,-0.02705c0,-0.02888 0.03496,-0.06531 0.07696,-0.08022c0.01869,-0.0066 0.02565,-0.02514 0.02565,-0.06816c0,-0.05145 0.00429,-0.05915 0.03298,-0.05933c0.07927,-0.00055 0.07663,0.02008 0.0811,-0.63689l0.0041,-0.60889l2.00782,0l2.00779,0l0,0.59464c0,0.63942 0.00136,0.65137 0.07381,0.65137c0.04082,0 0.04346,0.00348 0.04346,0.05783c0,0.04859 0.00641,0.06091 0.04016,0.07711c0.0221,0.01059 0.04885,0.03734 0.05944,0.05944c0.0155,0.03229 0.02917,0.04016 0.06978,0.04016c0.02987,0 0.05109,0.00748 0.05193,0.01832c0.00081,0.01008 0.00246,0.03481 0.00366,0.05497l0.00224,0.03665l0.39238,0.00392l0.39242,0.00388l0.01286,-0.03383c0.0181,-0.0476 0.05409,-0.07421 0.12405,-0.09169c0.0464,-0.01158 0.06512,-0.02565 0.08059,-0.06043c0.01125,-0.02532 0.04027,-0.05431 0.06556,-0.06556c0.02547,-0.01129 0.04881,-0.0347 0.05314,-0.05325c0.00436,-0.01858 0.03001,-0.04427 0.0586,-0.05864c0.0313,-0.01572 0.05409,-0.03965 0.05922,-0.06219c0.0059,-0.02595 0.01961,-0.03797 0.04702,-0.04119c0.04555,-0.00535 0.06542,-0.02606 0.07238,-0.07549c0.00341,-0.02437 0.01693,-0.0387 0.0417,-0.04427c0.02203,-0.00495 0.04541,-0.02661 0.05864,-0.05435c0.01404,-0.02939 0.03793,-0.05065 0.06596,-0.05867c0.03133,-0.00894 0.04782,-0.02547 0.05735,-0.0575c0.00953,-0.0321 0.02617,-0.04874 0.05827,-0.05827c0.03317,-0.00989 0.04845,-0.02584 0.05838,-0.06102c0.00828,-0.02928 0.02287,-0.04764 0.03786,-0.04764c0.0398,0 0.0737,-0.03383 0.07714,-0.07696c0.00264,-0.03273 0.01037,-0.04031 0.04108,-0.04031c0.04903,0 0.07304,-0.02507 0.07304,-0.07623c0,-0.03518 0.00586,-0.04104 0.04104,-0.04104c0.04911,0 0.07623,-0.02375 0.07623,-0.06677c0,-0.02312 0.01279,-0.03522 0.04764,-0.04508c0.03518,-0.00993 0.05112,-0.02521 0.06102,-0.05838c0.00956,-0.03225 0.02613,-0.0487 0.05864,-0.05827c0.03262,-0.00964 0.049,-0.02602 0.05864,-0.05864c0.00956,-0.03251 0.02602,-0.04907 0.05827,-0.05864c0.03203,-0.00953 0.04856,-0.02602 0.0575,-0.05735c0.00803,-0.02804 0.02928,-0.05193 0.05867,-0.06596c0.02774,-0.01323 0.0494,-0.03661 0.05435,-0.05864c0.00557,-0.02477 0.0199,-0.0383 0.04427,-0.0417c0.05369,-0.00755 0.06849,-0.02576 0.07923,-0.09741c0.00912,-0.06083 0.07164,-0.13941 0.11097,-0.13941c0.02829,0 0.01766,-0.762 -0.01081,-0.77208c-0.05325,-0.0188 -0.09088,-0.06794 -0.10034,-0.13094c-0.01055,-0.07029 -0.02554,-0.0885 -0.07905,-0.09605c-0.02437,-0.00341 -0.0387,-0.01693 -0.04427,-0.0417c-0.00495,-0.02203 -0.02661,-0.04541 -0.05435,-0.05864c-0.02939,-0.01404 -0.05065,-0.03793 -0.05867,-0.06596c-0.00894,-0.03133 -0.02547,-0.04782 -0.0575,-0.05735c-0.03225,-0.00956 -0.0487,-0.02613 -0.05827,-0.05864c-0.00964,-0.03262 -0.02602,-0.049 -0.05864,-0.05864c-0.03251,-0.00956 -0.04907,-0.02602 -0.05864,-0.05827c-0.00989,-0.03317 -0.02584,-0.04845 -0.06102,-0.05838c-0.03485,-0.00986 -0.04764,-0.02195 -0.04764,-0.04508c0,-0.04302 -0.02712,-0.06677 -0.07623,-0.06677c-0.03518,0 -0.04104,-0.00586 -0.04104,-0.04104c0,-0.05116 -0.024,-0.07623 -0.07304,-0.07623c-0.03071,0 -0.03844,-0.00759 -0.04108,-0.04031c-0.00344,-0.04313 -0.03734,-0.07696 -0.07714,-0.07696c-0.01499,0 -0.02957,-0.01836 -0.03786,-0.04764c-0.00993,-0.03518 -0.02521,-0.05112 -0.05838,-0.06102c-0.0321,-0.00953 -0.04874,-0.02617 -0.05827,-0.05827c-0.00953,-0.03203 -0.02602,-0.04856 -0.05735,-0.0575c-0.02804,-0.00803 -0.05193,-0.02928 -0.06596,-0.05867c-0.01323,-0.02774 -0.03661,-0.0494 -0.05864,-0.05435c-0.02477,-0.00557 -0.0383,-0.0199 -0.0417,-0.04427c-0.00696,-0.04944 -0.02683,-0.07014 -0.07238,-0.07549c-0.02741,-0.00322 -0.04112,-0.01525 -0.04702,-0.04119c-0.00513,-0.02254 -0.02793,-0.04647 -0.05922,-0.06219c-0.02858,-0.01437 -0.05424,-0.04006 -0.0586,-0.05864c-0.00443,-0.01906 -0.02796,-0.04207 -0.05541,-0.05424c-0.02701,-0.01198 -0.05127,-0.03555 -0.056,-0.05438c-0.01242,-0.04951 -0.03888,-0.06476 -0.12826,-0.07399c-0.08055,-0.00832 -0.08092,-0.00854 -0.08531,-0.06135l-0.00443,-0.05299l-0.39579,0l-0.39579,0l-0.00224,0.03665c-0.00121,0.02016 -0.00286,0.04489 -0.00366,0.05497c-0.00084,0.0111 -0.02279,0.01832 -0.05556,0.01832c-0.07758,0 -0.16575,0.09422 -0.16575,0.17715c0,0.05383 -0.00268,0.05739 -0.04346,0.05739c-0.07245,0 -0.07381,0.01195 -0.07381,0.65137l0,0.59464l-2.00779,0l-2.00782,0l-0.0041,-0.60889c-0.00447,-0.65697 -0.00183,-0.63634 -0.0811,-0.63689c-0.02829,-0.00018 -0.03298,-0.00806 -0.03309,-0.05519c-0.00007,-0.04566 -0.00751,-0.05919 -0.04398,-0.07993c-0.02411,-0.01374 -0.05153,-0.04178 -0.06087,-0.0623c-0.01319,-0.02895 -0.02782,-0.03734 -0.06509,-0.03734c-0.04497,0 -0.04837,-0.00355 -0.05263,-0.05497l-0.00454,-0.05497l-0.38945,-0.00388c-0.2142,-0.00216 -0.39396,0.00059 -0.39945,0.00608" fill-rule="evenodd"/>
  <path fill="#ccc" d="m1.76999,0.69989c0,0.02804 -0.05655,0.03811 -0.1869,0.03324c-0.01008,-0.00037 -0.01832,0.00561 -0.01832,0.01323c0,0.00766 -0.00495,0.01085 -0.01099,0.00715c-0.00605,-0.0037 -0.01169,0.01253 -0.01257,0.03613c-0.00205,0.05614 -0.00337,0.05699 -0.09118,0.05897c-0.04134,0.00092 -0.07245,0.00612 -0.06912,0.01151c0.00333,0.00539 -0.00836,0.0188 -0.02598,0.02976c-0.02921,0.01821 -0.03027,0.01781 -0.01191,-0.0044c0.01308,-0.0158 0.01437,-0.02433 0.00366,-0.02433c-0.01737,0 -0.01814,0.00187 -0.02375,0.05658c-0.00432,0.04236 -0.03218,0.06212 -0.08059,0.05713c-0.02012,-0.00209 -0.03716,0.00282 -0.03793,0.01088c-0.00073,0.00806 -0.00627,0.02587 -0.01235,0.03962c-0.00605,0.01371 -0.00781,0.0302 -0.00385,0.03665c0.00396,0.00641 -0.01235,0.01242 -0.03621,0.0133c-0.05475,0.00202 -0.07469,0.02184 -0.0767,0.07623c-0.0011,0.0291 -0.00784,0.04057 -0.02093,0.03558c-0.028,-0.0107 -0.08957,0.0262 -0.08099,0.04852c0.01257,0.0328 -0.02261,0.0778 -0.06461,0.0826c-0.02785,0.00322 -0.03969,0.01257 -0.03826,0.03031c0.0011,0.01411 -0.00297,0.02565 -0.00909,0.02565c-0.00612,0 -0.01187,0.03397 -0.01283,0.07553c-0.00198,0.08814 -0.00279,0.08938 -0.05897,0.09147c-0.0236,0.00088 -0.03984,0.00652 -0.03613,0.01257c0.0037,0.00605 0.00051,0.01099 -0.00715,0.01099c-0.00762,0 -0.0136,0.00825 -0.01323,0.01832c0.00487,0.13035 -0.0052,0.1869 -0.03324,0.1869c-0.02928,0 -0.02932,0.00978 -0.02932,6.23001c0,6.22023 0.00004,6.23001 0.02932,6.23001c0.02613,0 0.0295,0.01037 0.03115,0.09528c0.00099,0.05241 0.00268,0.10353 0.00366,0.11361c0.00103,0.01015 0.02635,0.02034 0.0568,0.02287c0.05343,0.00443 0.05497,0.00616 0.05497,0.0623c0,0.03177 0.00619,0.05776 0.01374,0.05776c0.00759,0 0.01253,0.01814 0.01099,0.04031c-0.00231,0.03379 0.00495,0.04258 0.04489,0.05435c0.04563,0.01341 0.05105,0.02239 0.05391,0.08858c0.00088,0.01983 0.01649,0.03383 0.04826,0.04321c0.03577,0.01055 0.04933,0.02455 0.05673,0.05864c0.01088,0.05028 0.02847,0.06618 0.07351,0.06651c0.02203,0.00015 0.0347,0.0136 0.04427,0.04695c0.01121,0.0391 0.0217,0.04764 0.06443,0.05252c0.06043,0.00689 0.06131,0.00759 0.06578,0.05054c0.00191,0.0184 0.00432,0.0391 0.00535,0.04603c0.00103,0.00689 0.01176,0.00876 0.02386,0.0041c0.01209,-0.00462 0.02199,-0.00205 0.02199,0.00579c0,0.00781 0.03628,0.01418 0.08062,0.01418c0.07575,0 0.08073,0.00224 0.08246,0.03665c0.00103,0.02016 0.00268,0.04489 0.00366,0.05497c0.00125,0.0125 0.03786,0.01968 0.11544,0.02261c0.10155,0.00381 0.11361,0.00733 0.11361,0.03298c0,0.02844 0.05438,0.02869 6.23001,0.02869c6.17563,0 6.23001,-0.00026 6.23001,-0.02869c0,-0.02565 0.01206,-0.02917 0.11361,-0.03298l0.11361,-0.00429l0.00454,-0.05497l0.00454,-0.05497l0.06875,-0.00022c0.09026,-0.00029 0.14084,-0.02657 0.14659,-0.07626c0.00392,-0.0335 0.01231,-0.03976 0.05864,-0.04361c0.03372,-0.00282 0.0527,-0.01143 0.05043,-0.02283c-0.00202,-0.01008 0.00293,-0.01832 0.01099,-0.01832c0.00806,0 0.01466,-0.01319 0.01466,-0.02932c0,-0.02126 0.00978,-0.02932 0.03558,-0.02932c0.01961,0 0.04599,-0.01037 0.05864,-0.02305c0.01268,-0.01264 0.02305,-0.03903 0.02305,-0.05864c0,-0.0258 0.00806,-0.03558 0.02932,-0.03558c0.01613,0 0.02932,-0.0066 0.02932,-0.01466c0,-0.00806 0.00825,-0.01301 0.01832,-0.01099c0.01176,0.00235 0.0199,-0.01792 0.02272,-0.05647c0.00388,-0.05285 0.00832,-0.05944 0.03665,-0.0546c0.05666,0.00967 0.07432,-0.01613 0.08081,-0.118l0.00605,-0.0955l0.05332,-0.00447l0.05332,-0.00443l0.00429,-0.11361c0.00381,-0.10155 0.00733,-0.11361 0.03298,-0.11361c0.02844,0 0.02869,-0.05438 0.02869,-6.23001c0,-6.17563 -0.00026,-6.23001 -0.02869,-6.23001c-0.02565,0 -0.02917,-0.01206 -0.03298,-0.11361c-0.00293,-0.07758 -0.01011,-0.11419 -0.02261,-0.11544c-0.01008,-0.00099 -0.03481,-0.00264 -0.05497,-0.00366c-0.03441,-0.00172 -0.03665,-0.00671 -0.03665,-0.08246c0,-0.04434 -0.00638,-0.08062 -0.01418,-0.08062c-0.00784,0 -0.01041,-0.00989 -0.00579,-0.02199c0.0048,-0.0125 -0.00011,-0.02294 -0.01143,-0.02422c-0.01096,-0.00121 -0.0265,-0.00377 -0.03456,-0.00564c-0.00806,-0.00187 -0.0229,-0.00414 -0.03298,-0.00509c-0.01041,-0.00095 -0.01832,-0.02155 -0.01832,-0.04771c0,-0.04841 -0.03262,-0.08462 -0.07696,-0.08542c-0.01664,-0.00033 -0.02573,-0.01209 -0.02587,-0.03346c-0.00033,-0.04746 -0.01569,-0.06461 -0.06794,-0.07597c-0.03804,-0.00825 -0.04782,-0.01884 -0.05556,-0.06017c-0.0066,-0.03518 -0.01693,-0.04958 -0.03448,-0.04815c-0.06875,0.00561 -0.09099,-0.00308 -0.09121,-0.03558c-0.00033,-0.04892 -0.02001,-0.07219 -0.05101,-0.06032c-0.01858,0.00715 -0.0236,0.00502 -0.01627,-0.00682c0.00759,-0.01231 -0.0122,-0.01715 -0.07,-0.01715l-0.08062,0l-0.00454,-0.05497c-0.00253,-0.03045 -0.01272,-0.05578 -0.02287,-0.0568c-0.01008,-0.00099 -0.0612,-0.00268 -0.11361,-0.00366c-0.08491,-0.00165 -0.09528,-0.00502 -0.09528,-0.03115c0,-0.02928 -0.00978,-0.02932 -6.23001,-0.02932c-6.22023,0 -6.23001,0.00004 -6.23001,0.02932m6.89248,1.16395c0.03764,0.03148 0.0723,0.07271 0.07707,0.09162l0.00861,0.03441l2.40867,0l2.40867,0l0.06399,0.05908c0.03518,0.03247 0.07421,0.05809 0.08671,0.05695c0.0538,-0.00502 0.06879,0.00392 0.08202,0.04889c0.01176,0.03991 0.02203,0.04841 0.06329,0.05237c0.04559,0.00436 0.04867,0.00781 0.04097,0.04629c-0.00942,0.04706 0.06648,0.16927 0.09763,0.15725c0.01136,-0.00436 0.01755,0.01165 0.01788,0.04643c0.00029,0.02924 0.00194,0.29886 0.00366,0.59918c0.00275,0.47418 0.00605,0.54604 0.02514,0.54604c0.0217,0 0.03086,0.00806 0.11727,0.10327l0.04398,0.04845l0,0.58053l0,0.58049l-0.05798,0.07077c-0.03188,0.03888 -0.07311,0.07648 -0.09162,0.08352l-0.03364,0.01279l0,2.92481c0,2.59007 0.00253,2.92481 0.02199,2.92481c0.0217,0 0.03086,0.00806 0.11727,0.10327l0.04398,0.04845l0,0.58053l0,0.58049l-0.05798,0.07077c-0.03188,0.03888 -0.07311,0.07648 -0.09162,0.08352l-0.03364,0.01279l-0.00322,0.53175c-0.00176,0.29248 -0.00341,0.5588 -0.00366,0.59185c-0.00033,0.04258 -0.00649,0.05966 -0.02122,0.05864c-0.03434,-0.00242 -0.10272,0.10991 -0.09389,0.15421c0.00685,0.03448 0.00227,0.03943 -0.04456,0.04819c-0.04555,0.00854 -0.05347,0.01645 -0.06201,0.06201c-0.00876,0.04684 -0.01371,0.05142 -0.04819,0.04456c-0.04431,-0.00883 -0.15663,0.05955 -0.15421,0.09389c0.00099,0.01426 -0.0151,0.02093 -0.05131,0.02129c-0.02902,0.00029 -1.1199,0.00194 -2.42421,0.00366l-2.37144,0.00315l-0.01279,0.03364c-0.00704,0.01851 -0.04464,0.05973 -0.08352,0.09162l-0.07077,0.05798l-0.58049,0l-0.58053,0l-0.04845,-0.04398c-0.09521,-0.08641 -0.10327,-0.09558 -0.10327,-0.11727c0,-0.01946 -0.27544,-0.02235 -2.3784,-0.02514c-1.30812,-0.00172 -2.40229,-0.00337 -2.43154,-0.00366c-0.03478,-0.00033 -0.05079,-0.00652 -0.04643,-0.01788c0.01202,-0.03115 -0.1102,-0.10705 -0.15725,-0.09763c-0.03848,0.0077 -0.04192,0.00462 -0.04629,-0.04097c-0.00396,-0.04126 -0.01246,-0.05153 -0.05237,-0.06329c-0.04497,-0.01323 -0.05391,-0.02822 -0.04889,-0.08202c0.00114,-0.0125 -0.02448,-0.05153 -0.05695,-0.08671l-0.05908,-0.06399l0,-0.57631l0,-0.57631l-0.03441,-0.00861c-0.01891,-0.00476 -0.06014,-0.03943 -0.09162,-0.07707l-0.05721,-0.06846l-0.00414,-0.57664c-0.00403,-0.55744 -0.00319,-0.57829 0.02554,-0.62476c0.04295,-0.06948 0.10301,-0.12555 0.13453,-0.12555c0.02653,0 0.0273,-0.0811 0.0273,-2.92415l0,-2.92418l-0.03441,-0.00861c-0.01891,-0.00476 -0.06014,-0.03943 -0.09162,-0.07707l-0.05721,-0.06846l-0.00414,-0.57664c-0.00403,-0.55744 -0.00319,-0.57829 0.02554,-0.62476c0.04295,-0.06948 0.10301,-0.12555 0.13453,-0.12555c0.0262,0 0.0273,-0.02529 0.0273,-0.63678l0,-0.63678l0.05497,-0.00454c0.03045,-0.00253 0.05578,-0.01272 0.0568,-0.02287c0.00103,-0.01008 0.00268,-0.03441 0.00366,-0.05405c0.0015,-0.0291 0.01063,-0.03654 0.04947,-0.04031c0.04189,-0.00403 0.04819,-0.01033 0.05222,-0.05222c0.00377,-0.03885 0.01121,-0.04797 0.04031,-0.04947c0.01964,-0.00099 0.04398,-0.00264 0.05405,-0.00366c0.01015,-0.00103 0.02034,-0.02635 0.02287,-0.0568l0.00454,-0.05497l2.46914,0c2.34161,0 2.46917,-0.00132 2.46961,-0.02565c0.00062,-0.03522 0.02496,-0.06373 0.10133,-0.11885l0.06516,-0.04702l0.58001,0.00414l0.57998,0.00414l0.06846,0.05721" fill-rule="evenodd"/>
  <path fill="#ccc" d="m7.38975,1.89298c-0.05699,0.0273 -0.10745,0.05955 -0.11207,0.07161c-0.00923,0.02408 -0.00062,0.0232 0.12764,-0.01297c0.10279,-0.02899 1.10696,-0.02954 1.19019,-0.00066c0.18173,0.06311 0.18807,0.02049 0.00942,-0.06314l-0.09517,-0.04453l-0.50815,0l-0.50819,0l-0.10367,0.04969m6.63035,1.72634c0.00432,0.01887 0.01708,0.06688 0.02829,0.10664c0.03569,0.12658 0.02895,1.12118 -0.00854,1.25641l-0.02891,0.10433l0.03053,-0.02756c0.01678,-0.01517 0.04958,-0.06531 0.07289,-0.11144l0.04236,-0.08385l0,-0.52666l0,-0.52662l-0.04266,-0.08601c-0.04929,-0.09928 -0.10767,-0.16469 -0.09396,-0.10525m-12.05727,-0.00682c-0.01081,0.00432 -0.04214,0.05475 -0.06963,0.11207l-0.04991,0.10415l0,0.50819l0,0.50815l0.04453,0.09517c0.08363,0.17865 0.12625,0.17232 0.06314,-0.00942c-0.02888,-0.08323 -0.02833,-1.08739 0.00066,-1.19019c0.02235,-0.07919 0.03679,-0.13893 0.03324,-0.1371c-0.00128,0.00062 -0.01118,0.00469 -0.02203,0.00898m12.05727,7.33624c0.00432,0.01887 0.01708,0.06688 0.02829,0.10664c0.03569,0.12658 0.02895,1.12118 -0.00854,1.25641l-0.02891,0.10433l0.03053,-0.02756c0.01678,-0.01517 0.04958,-0.06531 0.07289,-0.11144l0.04236,-0.08385l0,-0.52666l0,-0.52662l-0.04266,-0.08601c-0.04929,-0.09928 -0.10767,-0.16469 -0.09396,-0.10525m-12.05727,-0.00682c-0.01081,0.00432 -0.04214,0.05475 -0.06963,0.11207l-0.04991,0.10415l0,0.50819l0,0.50815l0.04453,0.09517c0.08363,0.17865 0.12625,0.17232 0.06314,-0.00942c-0.02888,-0.08323 -0.02833,-1.08739 0.00066,-1.19019c0.02235,-0.07919 0.03679,-0.13893 0.03324,-0.1371c-0.00128,0.00062 -0.01118,0.00469 -0.02203,0.00898m5.31365,3.09983c0.01473,0.01631 0.06552,0.04881 0.1128,0.0723l0.08601,0.04266l0.52662,0l0.52666,0l0.08385,-0.04236c0.04614,-0.02331 0.09627,-0.05611 0.11144,-0.07289l0.02756,-0.03053l-0.10433,0.02891c-0.13523,0.03749 -1.12983,0.04423 -1.25641,0.00854c-0.14318,-0.04038 -0.14483,-0.04046 -0.11419,-0.00663" fill-rule="evenodd"/>
  <path fill="#ccc" d="m7.36886,1.84537c-0.07505,0.05416 -0.10115,0.08414 -0.10019,0.11518c0.00055,0.01682 0.00253,0.01737 0.00854,0.00227c0.00432,-0.01081 0.05475,-0.04214 0.11207,-0.06963l0.10415,-0.04991l0.50852,0l0.50848,0l0.09045,0.04277c0.04977,0.02353 0.10268,0.05383 0.1176,0.06732c0.02551,0.02312 0.02668,0.02287 0.01964,-0.00399c-0.0041,-0.01569 -0.03822,-0.0542 -0.07579,-0.08564l-0.06831,-0.0571l-0.57998,-0.00414l-0.58001,-0.00414l-0.06516,0.04702m6.6479,1.20727c0,0.29831 0.00194,0.41825 0.00436,0.26657c0.00238,-0.15172 0.00238,-0.39579 -0.00004,-0.54238c-0.00238,-0.14663 -0.00432,-0.0225 -0.00432,0.27581m-12.12027,0.58844c-0.10254,0.10254 -0.09862,0.07278 -0.094,0.71158l0.00414,0.57664l0.0571,0.06831c0.03144,0.03756 0.06996,0.07168 0.08564,0.07579c0.02686,0.00704 0.02712,0.00586 0.00399,-0.01964c-0.01349,-0.01491 -0.04379,-0.06783 -0.06732,-0.1176l-0.04277,-0.09045l0,-0.50848l0,-0.50852l0.04991,-0.10415c0.02749,-0.05732 0.05882,-0.10774 0.06963,-0.11207c0.01433,-0.00568 0.01323,-0.00814 -0.00392,-0.00898c-0.01301,-0.00066 -0.04112,0.01627 -0.06241,0.03756m12.16069,-0.01308c0.01228,0.01411 0.03969,0.06083 0.06091,0.10382l0.03863,0.07817l0,0.52699l0,0.52702l-0.03822,0.07645c-0.02104,0.04207 -0.05402,0.09334 -0.07333,0.11397l-0.03511,0.03749l0.00374,2.91627l0.00374,2.91627l0.00363,-2.92114l0.00363,-2.92114l0.03364,-0.01279c0.01851,-0.00704 0.05973,-0.04464 0.09162,-0.08352l0.05798,-0.07077l0,-0.58049l0,-0.58053l-0.04398,-0.04845c-0.08506,-0.09374 -0.09543,-0.10327 -0.11221,-0.10327c-0.01077,0 -0.0088,0.00934 0.00535,0.02565m-12.16069,7.34251c-0.10254,0.10254 -0.09862,0.07278 -0.094,0.71158l0.00414,0.57664l0.0571,0.06831c0.03144,0.03756 0.06996,0.07168 0.08564,0.07579c0.02686,0.00704 0.02712,0.00586 0.00399,-0.01964c-0.01349,-0.01491 -0.04379,-0.06783 -0.06732,-0.1176l-0.04277,-0.09045l0,-0.50848l0,-0.50852l0.04991,-0.10415c0.02749,-0.05732 0.05882,-0.10774 0.06963,-0.11207c0.01433,-0.00568 0.01323,-0.00814 -0.00392,-0.00898c-0.01301,-0.00066 -0.04112,0.01627 -0.06241,0.03756m12.16069,-0.01308c0.01228,0.01411 0.03969,0.06083 0.06091,0.10382l0.03863,0.07817l0,0.52699l0,0.52702l-0.03822,0.07645c-0.02104,0.04207 -0.05409,0.09341 -0.07348,0.11412l-0.03525,0.03764l0.00403,0.52673l0.00403,0.52673l0.00348,-0.53175l0.00348,-0.53175l0.03364,-0.01279c0.01851,-0.00704 0.05973,-0.04464 0.09162,-0.08352l0.05798,-0.07077l0,-0.58049l0,-0.58053l-0.04398,-0.04845c-0.08506,-0.09374 -0.09543,-0.10327 -0.11221,-0.10327c-0.01077,0 -0.0088,0.00934 0.00535,0.02565m-10.35472,3.0637c0.65569,0.00213 1.72432,0.00213 2.37473,0c0.65038,-0.00213 0.1139,-0.00385 -1.1922,-0.00385c-1.3061,0 -1.83826,0.00172 -1.18253,0.00385m5.02176,0.01994c-0.01536,0.017 -0.06567,0.04999 -0.11181,0.07329l-0.08385,0.04236l-0.52695,0l-0.52691,0l-0.07817,-0.03863c-0.04299,-0.02122 -0.08971,-0.04863 -0.10382,-0.06091c-0.01631,-0.01415 -0.02565,-0.01613 -0.02565,-0.00535c0,0.01678 0.00953,0.02716 0.10327,0.11221l0.04845,0.04398l0.58053,0l0.58049,0l0.07077,-0.05798c0.03888,-0.03188 0.07648,-0.07307 0.08352,-0.09158l0.01275,-0.03361l2.37147,-0.00374l2.37144,-0.00374l-2.3688,-0.00363l-2.3688,-0.00363l-0.02793,0.03093" fill-rule="evenodd"/>
</svg>