<svg width="512" height="512" xmlns="http://www.w3.org/2000/svg">

 <g>
  <title>background</title>
  <rect fill="none" id="canvas_background" height="402" width="582" y="-1" x="-1"/>
 </g>
 <g>
  <title>Layer 1</title>
  <g transform="rotate(90 256.00048828125006,255.9994812011719) " id="svg_1">
   <g id="svg_2">
    <g id="svg_3">
     <path fill="#ccc" id="svg_4" d="m444.472,386.74c-4.375,-3.927 -11.083,-3.583 -15.082,0.792l-77.391,86.001l0,-292.2c0,-5.896 -4.771,-10.667 -10.666,-10.667c-5.896,0 -10.666,4.771 -10.666,10.667l0,292.199l-77.391,-86.001c-3.979,-4.396 -10.708,-4.74 -15.082,-0.792c-4.375,3.938 -4.729,10.688 -0.792,15.063l95.994,106.667c2.042,2.25 4.916,3.531 7.937,3.531c3.021,0 5.895,-1.281 7.937,-3.531l95.994,-106.667c3.937,-4.375 3.583,-11.125 -0.792,-15.062z"/>
     <path fill="#ccc" id="svg_5" d="m266.674,128c2.542,0 5.104,-0.906 7.146,-2.74c4.375,-3.938 4.729,-10.688 0.792,-15.063l-96,-106.667c-2.041,-2.249 -4.987,-3.53 -7.933,-3.531c-2.949,-0.001 -5.899,1.28 -7.942,3.531l-96,106.667c-3.937,4.375 -3.583,11.125 0.792,15.063c4.396,3.938 11.104,3.615 15.083,-0.792l77.396,-86.001l0,292.199c0,5.896 4.771,10.667 10.667,10.667s10.667,-4.771 10.667,-10.667l0,-292.199l77.396,86.001c2.123,2.345 5.019,3.532 7.936,3.532z"/>
    </g>
   </g>
  </g>
 </g>
</svg>